<svg xmlns="http://www.w3.org/2000/svg" viewBox="0 0 1600 900" role="img" aria-label="Abstract cosmology background">
  <defs>
    <radialGradient id="halo" cx="76%" cy="24%" r="62%">
      <stop offset="0" stop-color="#2d737c" stop-opacity=".52"/>
      <stop offset=".46" stop-color="#162b34" stop-opacity=".38"/>
      <stop offset="1" stop-color="#0c1118" stop-opacity="1"/>
    </radialGradient>
    <linearGradient id="wave" x1="0" x2="1" y1="0" y2="0">
      <stop offset="0" stop-color="#8bd1d6" stop-opacity="0"/>
      <stop offset=".5" stop-color="#8bd1d6" stop-opacity=".45"/>
      <stop offset="1" stop-color="#8bd1d6" stop-opacity="0"/>
    </linearGradient>
    <filter id="blur">
      <feGaussianBlur stdDeviation="10"/>
    </filter>
  </defs>
  <rect width="1600" height="900" fill="#0b1017"/>
  <rect width="1600" height="900" fill="url(#halo)"/>
  <g opacity=".18">
    <path d="M-40 612C170 520 308 690 520 580c270-140 454-66 694-182 156-75 300-108 426-89" fill="none" stroke="url(#wave)" stroke-width="4"/>
    <path d="M-80 672c238-122 425 51 646-68 263-142 426-42 676-171 130-67 246-87 395-62" fill="none" stroke="url(#wave)" stroke-width="2"/>
    <path d="M-50 735c245-143 424 4 632-90 256-116 420-68 672-154 131-45 256-57 385-18" fill="none" stroke="#d5f4f5" stroke-width="1.4" opacity=".45"/>
  </g>
  <g opacity=".2" filter="url(#blur)">
    <circle cx="1240" cy="210" r="120" fill="#80d5d2"/>
    <circle cx="1380" cy="620" r="180" fill="#526e8b"/>
  </g>
  <g fill="#d7fbff" opacity=".52">
    <circle cx="104" cy="144" r="2"/>
    <circle cx="236" cy="210" r="1.5"/>
    <circle cx="412" cy="168" r="2"/>
    <circle cx="762" cy="126" r="1.6"/>
    <circle cx="1016" cy="186" r="2"/>
    <circle cx="1328" cy="122" r="1.5"/>
    <circle cx="1454" cy="286" r="2"/>
    <circle cx="1176" cy="472" r="1.5"/>
    <circle cx="896" cy="606" r="1.6"/>
    <circle cx="1372" cy="704" r="1.8"/>
  </g>
  <g fill="none" stroke="#d7fbff" stroke-opacity=".12">
    <circle cx="1280" cy="238" r="70"/>
    <circle cx="1280" cy="238" r="112"/>
    <circle cx="1280" cy="238" r="158"/>
  </g>
</svg>
